<?xml version="1.0" encoding="utf-8"?>
<!-- Generator: Adobe Illustrator 18.1.1, SVG Export Plug-In . SVG Version: 6.00 Build 0)  -->
<!DOCTYPE svg PUBLIC "-//W3C//DTD SVG 1.1//EN" "http://www.w3.org/Graphics/SVG/1.1/DTD/svg11.dtd">
<svg version="1.1" id="Layer_1" xmlns="http://www.w3.org/2000/svg" xmlns:xlink="http://www.w3.org/1999/xlink" x="0px" y="0px"
	 viewBox="0 0 155 32" enable-background="new 0 0 155 32" xml:space="preserve">
<g>
	<path fill="#1D3649" d="M3,31.5c-1.4,0-2.5-1.1-2.5-2.5V3c0-1.4,1.1-2.5,2.5-2.5h149c1.4,0,2.5,1.1,2.5,2.5v26
		c0,1.4-1.1,2.5-2.5,2.5H3z"/>
	<path fill="#152935" d="M152,1c1.1,0,2,0.9,2,2v26c0,1.1-0.9,2-2,2H3c-1.1,0-2-0.9-2-2V3c0-1.1,0.9-2,2-2H152 M152,0H3
		C1.3,0,0,1.4,0,3v26c0,1.6,1.3,3,3,3h149c1.6,0,3-1.4,3-3V3C155,1.4,153.6,0,152,0L152,0z"/>
</g>
<g display="none">
	<g display="inline">
		<polygon fill="#FFFFFF" points="30.1,26 27.2,21 30.1,16 35.8,16 38.6,21 35.8,26 		"/>
		<polygon fill="#FFFFFF" points="30.1,16 27.2,11 30.1,6 35.8,6 38.6,11 35.8,16 		"/>
		<polygon fill="#FFFFFF" points="21.5,21 18.6,16 21.5,11 27.2,11 30.1,16 27.2,21 		"/>
	</g>
	<g display="inline">
		<path fill="#1D3649" d="M24.8,16c0,0.7,0.1,1.4,0.4,2.1c0.3,0.6,0.6,1.2,1.1,1.7c0.1,0.1,0.2,0.2,0.3,0.3v-8.2
			c-0.1,0.1-0.2,0.2-0.3,0.3c-0.5,0.5-0.9,1.1-1.1,1.7C24.9,14.6,24.8,15.3,24.8,16z"/>
		<path fill="#00B4A0" d="M33.8,12.2c-0.5-0.5-1-0.9-1.7-1.1c-0.7-0.3-1.3-0.4-2.1-0.4c-0.6,0-1.2,0.1-1.8,0.3l7,4.1
			c-0.1-0.4-0.2-0.8-0.3-1.2C34.7,13.3,34.3,12.7,33.8,12.2z"/>
		<path fill="#00B4A0" d="M27.6,11.3C27.6,11.3,27.6,11.3,27.6,11.3l2.6,4.5h5.2c0-0.1,0-0.1,0-0.2l-7.6-4.4
			C27.7,11.2,27.7,11.2,27.6,11.3z"/>
		<path fill="#5AAAFA" d="M35.3,16.2L35.3,16.2h-5.2l0,0l-2.6,4.5l0,0c0,0,0.1,0.1,0.2,0.1l7.6-4.4C35.3,16.3,35.3,16.3,35.3,16.2z"
			/>
		<path fill="#5AAAFA" d="M32.1,20.9c0.6-0.3,1.2-0.7,1.7-1.1c0.5-0.5,0.9-1.1,1.1-1.7c0.2-0.4,0.3-0.8,0.3-1.2l-7,4.1
			c0.6,0.2,1.2,0.3,1.8,0.3C30.8,21.3,31.5,21.2,32.1,20.9z"/>
		<path fill="#1D3649" d="M29.8,16L29.8,16L29.8,16l-2.6-4.5l0,0c0,0-0.1,0.1-0.1,0.1v8.8c0,0,0.1,0.1,0.1,0.1l0,0L29.8,16z"/>
		<path fill="#5A6464" d="M30.2,16.2L30.2,16.2L30.2,16.2z"/>
		<path fill="#00B4A0" d="M30.1,10.2c2.9,0,5.3,2.2,5.7,5.1c0,0.1,0,0.2,0,0.2l0,0l2.6-4.6l-2.7-4.8h-5.4l-2.6,4.6
			c0.1,0,0.2-0.1,0.2-0.1C28.5,10.4,29.3,10.2,30.1,10.2z"/>
		<rect x="27.6" y="21.2" fill="#5A6464" width="0" height="0.2"/>
		<path fill="#5AAAFA" d="M35.7,16.4L35.7,16.4c0,0.1,0,0.2,0,0.3c-0.3,2.9-2.7,5.1-5.7,5.1c-0.8,0-1.6-0.2-2.3-0.5
			c-0.1,0-0.2-0.1-0.2-0.1l2.6,4.6h5.4l2.7-4.8L35.7,16.4z"/>
		<path fill="#1D3649" d="M26.9,11.2h-5.2L18.9,16l2.7,4.8h5.2l0,0c-0.1,0-0.1-0.1-0.2-0.1c-1.4-1-2.3-2.7-2.3-4.6s0.9-3.6,2.3-4.6
			C26.7,11.3,26.8,11.3,26.9,11.2z"/>
	</g>
</g>
<g>
	<path fill="#FFFFFF" d="M39.4,12h3.7c2.2,0,3.9,1.4,3.9,4.2c0,2.5-1.3,4.3-3.9,4.3h-3.7V12z M41.3,18.9h1.7c1.1,0,2.1-0.7,2.1-2.6
		c0-1.7-0.6-2.8-2.5-2.8h-1.3V18.9z"/>
	<path fill="#FFFFFF" d="M49.4,17.8c0,1.1,0.6,1.6,1.5,1.6c0.7,0,1.2-0.4,1.3-0.8h1.5c-0.5,1.5-1.5,2.1-2.9,2.1
		c-2,0-3.2-1.3-3.2-3.3c0-1.9,1.3-3.3,3.2-3.3c2.1,0,3.1,1.8,3,3.7H49.4z M52.2,16.7c-0.2-0.9-0.5-1.3-1.4-1.3
		c-1.1,0-1.4,0.8-1.4,1.3H52.2z"/>
	<path fill="#FFFFFF" d="M54.9,14.3h1.6v0.8h0c0.4-0.7,1.1-1,1.8-1c1.9,0,2.8,1.6,2.8,3.3c0,1.7-0.9,3.2-2.7,3.2
		c-0.8,0-1.4-0.3-1.9-0.9h0v3h-1.7V14.3z M59.5,17.4c0-1-0.4-2-1.5-2c-1.1,0-1.5,1-1.5,2c0,1,0.4,2,1.5,2
		C59.2,19.4,59.5,18.4,59.5,17.4z"/>
	<path fill="#FFFFFF" d="M62.2,12h1.7v8.6h-1.7V12z"/>
	<path fill="#FFFFFF" d="M68.2,14.1c2,0,3.2,1.3,3.2,3.3c0,2-1.3,3.3-3.2,3.3c-1.9,0-3.2-1.3-3.2-3.3C65,15.4,66.2,14.1,68.2,14.1z
		 M68.2,19.4c1.2,0,1.5-1,1.5-2c0-1-0.3-2-1.5-2c-1.2,0-1.5,1-1.5,2C66.7,18.4,67,19.4,68.2,19.4z"/>
	<path fill="#FFFFFF" d="M75.3,21.3c-0.4,1-1,1.4-2.1,1.4c-0.3,0-0.7,0-1-0.1v-1.4c0.3,0,0.7,0.1,1,0.1c0.4,0,0.7-0.4,0.7-0.8
		c0-0.1,0-0.3-0.1-0.4l-2.2-5.8h1.8l1.4,4.2h0l1.4-4.2h1.8L75.3,21.3z"/>
	<path fill="#FFFFFF" d="M83.7,14.3H85v1.1h-1.2v3.1c0,0.6,0.1,0.7,0.7,0.7c0.2,0,0.4,0,0.5,0v1.3c-0.3,0-0.7,0.1-1,0.1
		c-1.1,0-2-0.2-2-1.5v-3.7h-1v-1.1h1v-1.9h1.7V14.3z"/>
	<path fill="#FFFFFF" d="M88.6,14.1c2,0,3.2,1.3,3.2,3.3c0,2-1.3,3.3-3.2,3.3c-1.9,0-3.2-1.3-3.2-3.3C85.4,15.4,86.6,14.1,88.6,14.1
		z M88.6,19.4c1.2,0,1.5-1,1.5-2c0-1-0.3-2-1.5-2c-1.2,0-1.5,1-1.5,2C87.1,18.4,87.4,19.4,88.6,19.4z"/>
	<path fill="#FFFFFF" d="M95.9,12h4c1.6,0,2.7,0.5,2.7,2.1c0,0.9-0.4,1.4-1.2,1.8c1.1,0.3,1.6,1.1,1.6,2.2c0,1.7-1.5,2.5-3,2.5h-4.1
		V12z M97.8,15.4h1.9c0.7,0,1.2-0.3,1.2-1c0-0.8-0.6-1-1.3-1h-1.8V15.4z M97.8,19.1h2c0.7,0,1.4-0.2,1.4-1.1c0-0.9-0.5-1.2-1.4-1.2
		h-2.1V19.1z"/>
	<path fill="#FFFFFF" d="M104.2,12h1.7v8.6h-1.7V12z"/>
	<path fill="#FFFFFF" d="M112.9,20.5h-1.6v-0.9h0c-0.4,0.7-1.2,1-1.9,1c-1.8,0-2.3-1-2.3-2.6v-3.8h1.7v3.5c0,1,0.3,1.5,1.1,1.5
		c0.9,0,1.3-0.5,1.3-1.8v-3.3h1.7V20.5z"/>
	<path fill="#FFFFFF" d="M115.6,17.8c0,1.1,0.6,1.6,1.5,1.6c0.7,0,1.2-0.4,1.3-0.8h1.5c-0.5,1.5-1.5,2.1-2.9,2.1
		c-2,0-3.2-1.3-3.2-3.3c0-1.9,1.3-3.3,3.2-3.3c2.1,0,3.1,1.8,3,3.7H115.6z M118.4,16.7c-0.2-0.9-0.5-1.3-1.4-1.3
		c-1.1,0-1.4,0.8-1.4,1.3H118.4z"/>
	<path fill="#FFFFFF" d="M121.1,14.3h1.6v0.8h0c0.4-0.6,1.1-1,1.9-1c0.8,0,1.5,0.3,1.8,1c0.4-0.5,1-1,1.9-1c1.3,0,2.3,0.6,2.3,2.2
		v4.2h-1.7V17c0-0.8-0.1-1.5-1-1.5c-1,0-1.1,0.8-1.1,1.6v3.5H125V17c0-0.7,0-1.5-1-1.5c-0.3,0-1.2,0.2-1.2,1.4v3.6h-1.7V14.3z"/>
	<path fill="#FFFFFF" d="M133.6,13.4h-1.7V12h1.7V13.4z M131.9,14.3h1.7v6.2h-1.7V14.3z"/>
	<path fill="#FFFFFF" d="M136.5,17.3l-2-2.9h1.9l1.1,1.6l1.1-1.6h1.9l-2,2.9l2.3,3.3h-1.9l-1.3-2l-1.3,2h-1.9L136.5,17.3z"/>
</g>
<g display="none">
	<path display="inline" fill="#1D3649" d="M20.6,16c0,0.7,0.1,1.5,0.4,2.1c0.3,0.7,0.7,1.2,1.2,1.7c0.1,0.1,0.2,0.2,0.3,0.3v-8.4
		c-0.1,0.1-0.2,0.2-0.3,0.3c-0.5,0.5-0.9,1.1-1.2,1.7C20.7,14.5,20.6,15.3,20.6,16z"/>
	<path display="inline" fill="#00B4A0" d="M29.9,12.1c-0.5-0.5-1.1-0.9-1.7-1.2c-0.7-0.3-1.4-0.4-2.1-0.4c-0.6,0-1.3,0.1-1.9,0.3
		l7.3,4.2c-0.1-0.4-0.2-0.8-0.3-1.2C30.8,13.2,30.4,12.6,29.9,12.1z"/>
	<path display="inline" fill="#00B4A0" d="M23.5,11.1C23.5,11.1,23.5,11.1,23.5,11.1l2.7,4.6h5.4c0-0.1,0-0.1,0-0.2l-7.9-4.5
		C23.6,11.1,23.6,11.1,23.5,11.1z"/>
	<path display="inline" fill="#5AAAFA" d="M31.5,16.2L31.5,16.2h-5.4l0,0l-2.7,4.6l0,0c0.1,0,0.1,0.1,0.2,0.1l7.9-4.5
		C31.5,16.3,31.5,16.3,31.5,16.2z"/>
	<path display="inline" fill="#5AAAFA" d="M28.2,21c0.7-0.3,1.2-0.7,1.7-1.2c0.5-0.5,0.9-1.1,1.2-1.7c0.2-0.4,0.3-0.8,0.3-1.2
		l-7.3,4.2c0.6,0.2,1.2,0.3,1.9,0.3C26.8,21.5,27.5,21.3,28.2,21z"/>
	<path display="inline" fill="#1D3649" d="M25.8,16L25.8,16L25.8,16l-2.7-4.6l0,0c0,0-0.2,0.1-0.2,0.1v9.1c0,0,0.1,0.1,0.1,0.1l0,0
		L25.8,16z"/>
	<path display="inline" fill="#90908F" d="M26.2,16.2L26.2,16.2L26.2,16.2z"/>
	<path display="inline" fill="#00B4A0" d="M26.1,10.1c3,0,5.5,2.3,5.9,5.2c0,0.1,0,0.2,0,0.2l0,0l2.7-4.7L31.8,6h-5.6l-2.7,4.7
		c0.1,0,0.2-0.1,0.3-0.1C24.4,10.3,25.2,10.1,26.1,10.1z"/>
	<rect x="23.5" y="21.3" display="inline" fill="#90908F" width="0" height="0.2"/>
	<path display="inline" fill="#5AAAFA" d="M31.9,16.4L31.9,16.4c0,0.1,0,0.2,0,0.3c-0.3,2.9-2.8,5.2-5.9,5.2c-0.8,0-1.6-0.2-2.3-0.5
		c-0.1,0-0.2-0.1-0.2-0.1l2.7,4.7h5.6l2.8-4.9L31.9,16.4z"/>
	<path display="inline" fill="#1D3649" d="M22.8,11.1h-5.4L14.5,16l2.8,4.9h5.4l0,0c-0.1,0-0.1-0.1-0.2-0.1
		c-1.4-1.1-2.4-2.8-2.4-4.7c0-1.9,0.9-3.7,2.4-4.7C22.6,11.2,22.7,11.2,22.8,11.1z"/>
</g>
<g>
	<path fill="#94A3AB" d="M19.8,15.7c0,0.7,0.1,1.5,0.4,2.1c0.3,0.7,0.7,1.2,1.2,1.7c0.1,0.1,0.2,0.2,0.3,0.3l0-8.4
		c-0.1,0.1-0.2,0.2-0.3,0.3c-0.5,0.5-0.9,1.1-1.2,1.7C20,14.3,19.8,15,19.8,15.7z"/>
	<path fill="#00B4A0" d="M29.2,11.9c-0.5-0.5-1.1-0.9-1.7-1.2c-0.7-0.3-1.4-0.4-2.1-0.4c-0.6,0-1.3,0.1-1.9,0.3l7.3,4.2
		c-0.1-0.4-0.2-0.8-0.3-1.2C30.1,12.9,29.7,12.4,29.2,11.9z"/>
	<path fill="#00B4A0" d="M22.8,10.9C22.8,10.9,22.8,10.9,22.8,10.9l2.7,4.6h5.3c0-0.1,0-0.1,0-0.2l-7.8-4.5
		C22.9,10.8,22.8,10.8,22.8,10.9z"/>
	<path fill="#5AAAFA" d="M30.8,15.9L30.8,15.9l-5.3,0v0l-2.7,4.6l0,0c0.1,0,0.1,0.1,0.2,0.1l7.8-4.5C30.8,16.1,30.8,16,30.8,15.9z"
		/>
	<path fill="#5AAAFA" d="M27.4,20.8c0.7-0.3,1.2-0.7,1.7-1.2c0.5-0.5,0.9-1.1,1.2-1.7c0.2-0.4,0.3-0.8,0.3-1.2l-7.3,4.2
		c0.6,0.2,1.2,0.3,1.9,0.3C26.1,21.2,26.8,21,27.4,20.8z"/>
	<path fill="#94A3AB" d="M25,15.7L25,15.7L25,15.7l-2.7-4.6c0,0,0,0,0,0c0,0-0.2,0.1-0.2,0.1l0,9c0,0,0.1,0.1,0.1,0.1l0,0L25,15.7z"
		/>
	<polygon fill="#919191" points="25.4,15.9 25.4,15.9 25.4,15.9 	"/>
	<path fill="#00B4A0" d="M25.3,9.8c3,0,5.5,2.3,5.9,5.2c0,0.1,0,0.2,0,0.2c0,0,0,0,0,0l2.7-4.7l-2.8-4.9h-5.6l-2.7,4.7
		c0.1,0,0.2-0.1,0.3-0.1C23.7,10,24.5,9.8,25.3,9.8z"/>
	<rect x="22.8" y="21" fill="#919191" width="0" height="0.2"/>
	<path fill="#5AAAFA" d="M31.2,16.1L31.2,16.1c0,0.1,0,0.2,0,0.3c-0.3,2.9-2.8,5.2-5.9,5.2c-0.8,0-1.6-0.2-2.3-0.5
		c-0.1,0-0.2-0.1-0.2-0.1l2.7,4.7h5.6l2.8-4.9L31.2,16.1z"/>
	<path fill="#94A3AB" d="M22,10.8h-5.4l-2.8,4.9l2.8,4.9H22c0,0,0,0,0,0c-0.1,0-0.1-0.1-0.2-0.1c-1.4-1.1-2.4-2.8-2.4-4.7
		c0-1.9,0.9-3.6,2.4-4.7C21.9,10.9,21.9,10.9,22,10.8z"/>
</g>
</svg>
